<svg xmlns="http://www.w3.org/2000/svg" width="64" height="64" viewBox="0 0 64 64">
    <g fill="none" fill-rule="evenodd">
        <path fill="#F0ECFD" d="M25.639 0H38.36c8.915 0 12.148.928 15.407 2.671 3.26 1.743 5.818 4.301 7.56 7.56C63.073 13.492 64 16.725 64 25.64V38.36c0 8.915-.928 12.148-2.671 15.407-1.743 3.26-4.301 5.818-7.56 7.56C50.508 63.073 47.275 64 38.36 64H25.64c-8.915 0-12.148-.928-15.407-2.671-3.26-1.743-5.818-4.301-7.56-7.56C.927 50.508 0 47.275 0 38.36V25.64c0-8.915.928-12.148 2.671-15.407 1.743-3.26 4.301-5.818 7.56-7.56C13.492.927 16.725 0 25.64 0z"/>
        <g>
            <path d="M0 2L24 2 24 26 0 26z" transform="translate(20 18)"/>
            <path fill="#5B26ED" fill-rule="nonzero" d="M13.222 3.637C18.722 4.229 23 8.77 23 14.286V25H1V14.286C1 8.77 5.278 4.229 10.778 3.636V0h2.444v3.637zM12 20.238c3.375 0 6.111-2.665 6.111-5.952 0-3.288-2.736-5.953-6.111-5.953-3.375 0-6.111 2.665-6.111 5.953 0 3.287 2.736 5.952 6.111 5.952zm0-2.38c-2.025 0-3.667-1.6-3.667-3.572 0-1.973 1.642-3.572 3.667-3.572s3.667 1.6 3.667 3.572-1.642 3.571-3.667 3.571zm0-2.382c.675 0 1.222-.533 1.222-1.19 0-.658-.547-1.19-1.222-1.19-.675 0-1.222.532-1.222 1.19 0 .657.547 1.19 1.222 1.19z" transform="translate(20 18)"/>
        </g>
    </g>
</svg>
