<svg xmlns="http://www.w3.org/2000/svg" xmlns:xlink="http://www.w3.org/1999/xlink" width="186" height="186" viewBox="0 0 186 186">
    <defs>
        <path id="prefix__a" d="M0 0L150 0 150 150 0 150z"/>
    </defs>
    <g fill="none" fill-rule="evenodd" transform="rotate(-16 147.095 20.673)">
        <mask id="prefix__b" fill="#fff">
            <use xlink:href="#prefix__a"/>
        </mask>
        <path fill="#26EF7A" d="M75 150c-41.355 0-75-33.646-75-75C0 33.645 33.645 0 75 0c41.354 0 75 33.645 75 75 0 41.354-33.646 75-75 75" mask="url(#prefix__b)"/>
        <path fill="#000" d="M74.719 86.303c-5.515 0-10 4.553-10 10.15v8.7c0 5.597 4.485 10.15 10 10.15 5.514 0 10-4.553 10-10.15v-8.7c0-5.597-4.486-10.15-10-10.15m-.247 35.622c-9.374 0-17-7.717-17-17.2v-8.6c0-9.484 7.626-17.2 17-17.2 9.373 0 17 7.716 17 17.2v8.6c0 9.483-7.627 17.2-17 17.2"/>
        <path fill="#0D0D0D" d="M75.493 14.762c-33.636 0-61 27.364-61 61 0 33.635 27.364 61 61 61 33.635 0 61-27.365 61-61 0-33.636-27.365-61-61-61m-.259 128.66c-37.495 0-68-30.504-68-68 0-37.495 30.505-68 68-68 37.495 0 68 30.505 68 68 0 37.496-30.505 68-68 68"/>
        <path fill="#0D0D0D" d="M100.35 48.325L81.85 67.195 81.85 72.325 86.881 72.325 100.35 58.589 113.82 72.325 118.85 72.325 118.85 67.195zM49.39 48.277L67.89 67.146 67.89 72.277 62.859 72.277 49.39 58.541 35.92 72.277 30.89 72.277 30.89 67.146z"/>
    </g>
</svg>
