<svg xmlns="http://www.w3.org/2000/svg" width="64" height="64" viewBox="0 0 64 64">
    <g fill="none" fill-rule="evenodd">
        <path fill="#F0ECFD" d="M25.639 0H38.36c8.915 0 12.148.928 15.407 2.671 3.26 1.743 5.818 4.301 7.56 7.56C63.073 13.492 64 16.725 64 25.64V38.36c0 8.915-.928 12.148-2.671 15.407-1.743 3.26-4.301 5.818-7.56 7.56C50.508 63.073 47.275 64 38.36 64H25.64c-8.915 0-12.148-.928-15.407-2.671-3.26-1.743-5.818-4.301-7.56-7.56C.927 50.508 0 47.275 0 38.36V25.64c0-8.915.928-12.148 2.671-15.407 1.743-3.26 4.301-5.818 7.56-7.56C13.492.927 16.725 0 25.64 0z"/>
        <g>
            <path d="M0 0L24 0 24 24 0 24z" transform="translate(20 20)"/>
            <path fill="#5B26ED" fill-rule="nonzero" d="M1 8h3v14H1c-.552 0-1-.522-1-1.167V9.167C0 8.522.448 8 1 8zm5.33-.74l7.2-7.097c.197-.196.511-.218.735-.052l.96.71c.545.403.79 1.09.622 1.74L14.55 7.585h7.2c1.243 0 2.25.993 2.25 2.217v2.333c0 .29-.057.577-.169.845l-3.482 8.334c-.173.415-.584.686-1.04.686H7.125C6.504 22 6 21.504 6 20.891V8.044c0-.294.119-.576.33-.784z" transform="translate(20 20)"/>
        </g>
    </g>
</svg>
