<svg xmlns="http://www.w3.org/2000/svg" width="137" height="56" viewBox="0 0 137 56">
    <g fill="none" fill-rule="evenodd">
        <path fill="#26EF7A" d="M27.101 55.026C12.158 55.026 0 42.869 0 27.924 0 12.981 12.158.824 27.1.824s27.102 12.157 27.102 27.1c0 14.945-12.159 27.102-27.102 27.102"/>
        <path fill="#0D0D0D" d="M27.101 3.405c13.52 0 24.52 11 24.52 24.52s-11 24.52-24.52 24.52-24.52-11-24.52-24.52 11-24.52 24.52-24.52zm0 2.58c-12.097 0-21.938 9.843-21.938 21.94 0 12.096 9.84 21.94 21.938 21.94 12.098 0 21.94-9.844 21.94-21.94 0-12.097-9.842-21.94-21.94-21.94zm9.043 24.004l1.282 1.282v1.95c0 5.694-4.632 10.325-10.325 10.325-5.692 0-10.324-4.631-10.324-10.324v-2.697l1.28 1.022 1.301-1.022v2.697c0 4.27 3.474 7.743 7.743 7.743 4.27 0 7.744-3.473 7.744-7.743V31.27l1.28-1.282h.02zM13.182 18.873l4.886 4.886 4.886-4.886h1.825v1.825l-6.711 6.71-6.711-6.71v-1.825h1.825zm22.953-.637l6.711 6.711v1.825H41.02l-4.885-4.886-4.886 4.886h-1.825v-1.825l6.711-6.71z"/>
        <g fill="#FFF">
            <path d="M7.07 8.932c0-1.32-.868-2.333-2.17-2.333-1.393 0-2.17 1.031-2.17 2.333 0 1.32.777 2.37 2.188 2.37 1.284 0 2.152-1.031 2.152-2.37M.506 15.858v-1.212h2.188s.38 1.212 2.08 1.212c1.573 0 2.296-1.085 2.296-2.64v-.977c-.614.905-1.664 1.411-3.002 1.411C1.555 13.652 0 11.536 0 8.97 0 6.292 1.591 4.14 4.14 4.14c1.32 0 2.37.634 2.966 1.574l.145-1.284H9.8v8.716c0 3.11-1.988 5.117-4.954 5.117-3.508 0-4.34-2.405-4.34-2.405M16.617 10.252v-.398s-.633-.145-1.518-.145c-1.068 0-1.411.453-1.411 1.032 0 .704.452.994 1.193.994 1.176 0 1.736-.832 1.736-1.483m-5.624.741c0-1.736 1.266-2.838 3.925-2.838.94 0 1.7.18 1.7.18v-.398c0-.995-.47-1.518-1.501-1.518-1.176 0-1.556.831-1.556.831H11.5V6.04s.777-1.88 3.67-1.88c2.786 0 4.177 1.32 4.177 3.869v5.533h-2.459l-.18-1.157c-.452.741-1.266 1.429-2.713 1.429-2.007 0-3.002-1.284-3.002-2.84M27.63 8.986c0-1.338-.869-2.369-2.17-2.369-1.411 0-2.17 1.05-2.17 2.387 0 1.32.759 2.369 2.17 2.369 1.301 0 2.17-1.03 2.17-2.387m-7.07.018c0-2.73 1.608-4.846 4.122-4.846 1.32 0 2.297.56 2.947 1.501V0h2.713v13.561H27.81l-.163-1.302c-.597.959-1.681 1.574-3.019 1.574-2.568 0-4.069-2.17-4.069-4.829M38.732 8.932c0-1.32-.868-2.333-2.17-2.333-1.393 0-2.17 1.031-2.17 2.333 0 1.32.777 2.37 2.188 2.37 1.284 0 2.152-1.031 2.152-2.37m-6.565 6.926v-1.212h2.188s.38 1.212 2.08 1.212c1.574 0 2.297-1.085 2.297-2.64v-.977c-.616.905-1.664 1.411-3.002 1.411-2.514 0-4.068-2.116-4.068-4.683 0-2.677 1.59-4.829 4.14-4.829 1.32 0 2.369.634 2.965 1.574l.145-1.284h2.55v8.716c0 3.11-1.99 5.117-4.955 5.117-3.507 0-4.34-2.405-4.34-2.405M49.364 7.974c0-.868-.597-1.645-1.827-1.645-1.193 0-1.772.687-1.99 1.645h3.817zm-6.619 1.05c0-2.677 1.736-4.865 4.81-4.865 3.093 0 4.431 1.863 4.431 4.304 0 .632-.127 1.157-.127 1.157h-6.365c.163 1.23.886 2.025 2.225 2.025 1.627 0 1.953-.831 1.953-.831h2.133v1.21s-.885 1.809-4.14 1.809c-3.292 0-4.92-2.098-4.92-4.81zM.036 27.595v-1.23H2.08c.073.273.687 1.05 1.953 1.05 1.048 0 1.41-.362 1.41-.868 0-.579-.523-.796-1.392-.941l-1.157-.144c-1.645-.218-2.73-1.03-2.73-2.731 0-1.753 1.41-3.001 3.725-3.001 2.097 0 3.2.795 3.598 1.735v1.23H5.425c-.037-.199-.47-.976-1.592-.976-.868 0-1.23.361-1.23.868 0 .488.417.76 1.158.886l1.158.162c1.753.254 2.965.922 2.965 2.677 0 1.808-1.428 3.092-3.888 3.092-2.496 0-3.743-1.212-3.96-1.809M14.32 25.823v-.398s-.633-.144-1.518-.144c-1.067 0-1.41.452-1.41 1.03 0 .706.451.995 1.193.995 1.176 0 1.736-.832 1.736-1.483m-5.624.741c0-1.736 1.266-2.838 3.924-2.838.94 0 1.7.18 1.7.18v-.398c0-.994-.47-1.518-1.501-1.518-1.176 0-1.556.831-1.556.831h-2.06v-1.21s.777-1.882 3.67-1.882c2.785 0 4.177 1.32 4.177 3.87v5.533h-2.46l-.18-1.157c-.452.741-1.266 1.429-2.713 1.429-2.007 0-3.001-1.285-3.001-2.84M18.714 29.131L21.445 29.131 21.445 15.57 18.714 15.57zM25.893 29.132L22.493 21.267 22.493 20.001 24.953 20.001 27.231 25.552 29.474 20.001 31.788 20.001 31.788 21.212 28.352 29.132zM37.9 25.823v-.398s-.633-.144-1.519-.144c-1.067 0-1.41.452-1.41 1.03 0 .706.451.995 1.193.995 1.175 0 1.736-.832 1.736-1.483m-5.624.741c0-1.736 1.266-2.838 3.924-2.838.94 0 1.7.18 1.7.18v-.398c0-.994-.47-1.518-1.5-1.518-1.177 0-1.556.831-1.556.831h-2.062v-1.21s.778-1.882 3.67-1.882c2.786 0 4.178 1.32 4.178 3.87v5.533h-2.46l-.18-1.157c-.452.741-1.266 1.429-2.712 1.429-2.007 0-3.002-1.285-3.002-2.84M48.4 29.132h2.712v-9.131H48.4v9.131zm-.074-10.849h2.821v-2.532h-2.821v2.532zM59.248 24.54c0-1.339-.668-2.442-2.096-2.442-1.43 0-2.099 1.103-2.099 2.441 0 1.375.67 2.496 2.099 2.496 1.428 0 2.096-1.121 2.096-2.496m-6.926 0c0-2.658 1.79-4.81 4.83-4.81 3.019 0 4.827 2.152 4.827 4.81 0 2.677-1.808 4.865-4.827 4.865-3.04 0-4.83-2.188-4.83-4.865M63.245 20h2.55l.126 1.212c.398-.687 1.301-1.482 2.73-1.482 2.423 0 3.273 1.735 3.273 3.724v5.678h-2.712V23.96c0-1.066-.416-1.79-1.501-1.79-1.32 0-1.736.94-1.736 1.826v5.136h-2.73V20zM42.763 25.895v-3.67h-1.356V20h1.392l.145-2.315h2.55V20h1.74v2.225h-1.74v3.58c0 .922.308 1.338 1.013 1.338.429 0 .642-.064.72-.082l.006 2.072c0 .056-.645.27-1.17.27-1.971 0-3.3-1.32-3.3-3.508M54.03 10.325v-3.67h-1.357V4.43h1.392l.145-2.314h2.55V4.43h1.74v2.224h-1.74v3.58c0 .922.307 1.338 1.012 1.338.43 0 .643-.064.72-.082l.007 2.071c0 .057-.644.271-1.17.271-1.971 0-3.3-1.32-3.3-3.507" transform="translate(64.082 14.143)"/>
        </g>
    </g>
</svg>
