<?xml version="1.0" encoding="UTF-8"?>
<svg width="137px" height="56px" viewBox="0 0 137 56" version="1.1" xmlns="http://www.w3.org/2000/svg" xmlns:xlink="http://www.w3.org/1999/xlink">
    <title>FAD4753C-E99C-4F35-8F3B-FC6CFECB22AC</title>
    <g id="Page-1" stroke="none" stroke-width="1" fill="none" fill-rule="evenodd">
        <g id="Home-Page-after-Corrections" transform="translate(-44.000000, -14.000000)">
            <g id="Hero">
                <g id="header/unregistered">
                    <g id="Logo" transform="translate(44.000000, 14.000000)">
                        <path d="M27.1014471,55.0258471 C12.1576824,55.0258471 -8.23529412e-05,42.8689059 -8.23529412e-05,27.9243176 C-8.23529412e-05,12.9813765 12.1576824,0.823611765 27.1014471,0.823611765 C42.0443882,0.823611765 54.2029765,12.9813765 54.2029765,27.9243176 C54.2029765,42.8689059 42.0443882,55.0258471 27.1014471,55.0258471" id="Fill-1" fill="#26EF7A"></path>
                        <path d="M27.1014471,3.40471765 C40.6213294,3.40471765 51.6212118,14.4046 51.6212118,27.9244824 C51.6212118,41.4451882 40.6213294,52.4450706 27.1014471,52.4450706 C13.5807412,52.4450706 2.58168235,41.4451882 2.58168235,27.9244824 C2.58168235,14.4046 13.5807412,3.40471765 27.1014471,3.40471765 Z M27.1014471,5.98565882 C15.0038,5.98565882 5.16262353,15.8276588 5.16262353,27.9244824 C5.16262353,40.0213059 15.0038,49.8641294 27.1014471,49.8641294 C39.1990941,49.8641294 49.0402706,40.0213059 49.0402706,27.9244824 C49.0402706,15.8276588 39.1990941,5.98565882 27.1014471,5.98565882 Z M109.575859,31.8280941 L109.575859,34.1430353 L111.315153,34.1430353 L111.315153,36.3673882 L109.575859,36.3673882 L109.575859,39.9472706 C109.575859,40.8696235 109.883859,41.2855059 110.5888,41.2855059 C111.017859,41.2855059 111.231153,41.2212706 111.308565,41.2031529 C111.308565,41.2879765 111.315153,43.2175059 111.315153,43.2751529 C111.315153,43.3319765 110.670329,43.5460941 110.144918,43.5460941 C108.173388,43.5460941 106.845035,42.2251529 106.845035,40.0378588 L106.845035,36.3673882 L105.488682,36.3673882 L105.488682,34.1430353 L106.881271,34.1430353 L107.026212,31.8280941 L109.575859,31.8280941 Z M36.1442118,29.9894824 L37.4256235,31.2708941 L37.4256235,33.2218353 C37.4256235,38.9148941 32.7940941,43.5464235 27.1010353,43.5464235 C21.4088,43.5464235 16.7772706,38.9148941 16.7772706,33.2218353 L16.7772706,33.2218353 L16.7772706,30.5247765 L18.0578588,31.5467765 L19.3582118,30.5247765 L19.3582118,33.2218353 C19.3582118,37.4918353 22.8318588,40.9654824 27.1010353,40.9654824 C31.3710353,40.9654824 34.8446824,37.4918353 34.8446824,33.2218353 L34.8446824,33.2218353 L34.8446824,31.2708941 L36.1252706,29.9894824 L36.1442118,29.9894824 Z M67.9696706,33.8725059 C70.0672,33.8725059 71.1699059,34.6680353 71.5676706,35.6076824 L71.5676706,36.8372118 L69.5063765,36.8372118 C69.4701412,36.6387412 69.0361412,35.8613294 67.9153176,35.8613294 C67.0473176,35.8613294 66.6857882,36.2228588 66.6857882,36.7293294 C66.6857882,37.2176824 67.1016706,37.4894471 67.8428471,37.6154471 L69.0007294,37.7776824 C70.7540235,38.0313294 71.9654353,38.7000353 71.9654353,40.4541529 C71.9654353,42.2626235 70.5374353,43.5465059 68.0775529,43.5465059 C65.5822588,43.5465059 64.3346118,42.3350941 64.1180235,41.7380353 L64.1180235,40.5085059 L66.1612,40.5085059 C66.2336706,40.7802706 66.8480235,41.5568588 68.1137882,41.5568588 C69.1621412,41.5568588 69.5244941,41.1953294 69.5244941,40.6896824 C69.5244941,40.1107412 69.0007294,39.8933294 68.1319059,39.7483882 L66.9748471,39.6042706 C65.3294353,39.3868588 64.2448471,38.5740353 64.2448471,36.8734471 C64.2448471,35.1201529 65.6547294,33.8725059 67.9696706,33.8725059 Z M121.233412,33.8725059 C124.252471,33.8725059 126.060941,36.0235647 126.060941,38.6819176 C126.060941,41.3583882 124.252471,43.5465059 121.233412,43.5465059 C118.194588,43.5465059 116.404235,41.3583882 116.404235,38.6819176 C116.404235,36.0235647 118.194588,33.8725059 121.233412,33.8725059 Z M76.9562706,33.8717647 C79.7406235,33.8717647 81.1332118,35.1918824 81.1332118,37.7415294 L81.1332118,43.2748235 L78.6733294,43.2748235 L78.4929765,42.1177647 C78.0408588,42.8589412 77.2272118,43.5465882 75.7802706,43.5465882 C73.7733294,43.5465882 72.7785059,42.2618824 72.7785059,40.7070588 C72.7785059,38.9710588 74.0450941,37.8683529 76.7026235,37.8683529 C77.6430941,37.8683529 78.4023882,38.0495294 78.4023882,38.0495294 L78.4023882,37.6509412 C78.4023882,36.6569412 77.9329765,36.1323529 76.9019176,36.1323529 C75.7259176,36.1323529 75.3462706,36.9641176 75.3462706,36.9641176 L73.2849765,36.9641176 L73.2849765,35.7527059 C73.2849765,35.7527059 74.0632118,33.8717647 76.9562706,33.8717647 Z M100.534576,33.8717647 C103.319753,33.8717647 104.711518,35.1918824 104.711518,37.7415294 L104.711518,43.2748235 L102.252459,43.2748235 L102.072106,42.1177647 C101.619988,42.8589412 100.806341,43.5465882 99.3594,43.5465882 C97.3524588,43.5465882 96.3576353,42.2618824 96.3576353,40.7070588 C96.3576353,38.9710588 97.6234,37.8683529 100.281753,37.8683529 C101.2214,37.8683529 101.981518,38.0495294 101.981518,38.0495294 L101.981518,37.6509412 C101.981518,36.6569412 101.511282,36.1323529 100.481047,36.1323529 C99.3050471,36.1323529 98.9254,36.9641176 98.9254,36.9641176 L96.8641059,36.9641176 L96.8641059,35.7527059 C96.8641059,35.7527059 97.6415176,33.8717647 100.534576,33.8717647 Z M115.193647,34.1435294 L115.193647,43.2748235 L112.481765,43.2748235 L112.481765,34.1435294 L115.193647,34.1435294 Z M89.0351412,34.1436118 L91.3130235,39.6942 L93.5554941,34.1436118 L95.8696118,34.1436118 L95.8696118,35.3550235 L92.4338471,43.2749059 L89.9747882,43.2749059 L86.5752588,35.4093765 L86.5752588,34.1436118 L89.0351412,34.1436118 Z M85.5268235,29.7129412 L85.5268235,43.274 L82.796,43.274 L82.796,29.7129412 L85.5268235,29.7129412 Z M132.732847,33.8723412 C135.155671,33.8723412 136.005553,35.6075176 136.005553,37.5963412 L136.005553,43.2745765 L133.293671,43.2745765 L133.293671,38.1028118 C133.293671,37.0363412 132.877788,36.3132824 131.792376,36.3132824 C130.472259,36.3132824 130.056376,37.2529294 130.056376,38.1390471 L130.056376,43.2745765 L127.326376,43.2745765 L127.326376,34.1432824 L129.876024,34.1432824 L130.002847,35.3546941 C130.400612,34.6678706 131.304024,33.8723412 132.732847,33.8723412 Z M100.462929,39.4231765 C99.3956353,39.4231765 99.0522235,39.8752941 99.0522235,40.4534118 C99.0522235,41.1591765 99.5043412,41.4482353 100.245518,41.4482353 C101.420694,41.4482353 101.981518,40.6164706 101.981518,39.9658824 L101.981518,39.5681176 C101.981518,39.5681176 101.349047,39.4231765 100.462929,39.4231765 Z M76.8838,39.4231765 C75.8165059,39.4231765 75.4730941,39.8752941 75.4730941,40.4534118 C75.4730941,41.1591765 75.9252118,41.4482353 76.6672118,41.4482353 C77.8423882,41.4482353 78.4023882,40.6164706 78.4023882,39.9658824 L78.4023882,39.5681176 C78.4023882,39.5681176 77.7690941,39.4231765 76.8838,39.4231765 Z M121.233412,36.2409765 C119.804588,36.2409765 119.135059,37.3436824 119.135059,38.6819176 C119.135059,40.0563882 119.804588,41.1772118 121.233412,41.1772118 C122.661412,41.1772118 123.330118,40.0563882 123.330118,38.6819176 C123.330118,37.3436824 122.661412,36.2409765 121.233412,36.2409765 Z M115.229059,29.8941176 L115.229059,32.4256471 L112.407647,32.4256471 L112.407647,29.8941176 L115.229059,29.8941176 Z M68.2225765,18.2830118 C69.5426941,18.2830118 70.5910471,18.9163059 71.1881059,19.8567765 L71.3330471,18.5728941 L73.8818706,18.5728941 L73.8818706,27.2883059 C73.8818706,30.3987765 71.8938706,32.4057176 68.9275176,32.4057176 C65.4201059,32.4057176 64.5883412,30.0010118 64.5883412,30.0010118 L64.5883412,28.7887765 L66.7756353,28.7887765 C66.7756353,28.7887765 67.1561059,30.0010118 68.8558706,30.0010118 C70.4288118,30.0010118 71.1518706,28.9156 71.1518706,27.3607765 L71.1518706,26.3840706 C70.5375176,27.2883059 69.4883412,27.7947765 68.1501059,27.7947765 C65.6366941,27.7947765 64.0818706,25.6791294 64.0818706,23.1113647 C64.0818706,20.4348941 65.6729294,18.2830118 68.2225765,18.2830118 Z M99.8841529,18.2830118 C101.204271,18.2830118 102.252624,18.9163059 102.848859,19.8567765 L102.9938,18.5728941 L105.543447,18.5728941 L105.543447,27.2883059 C105.543447,30.3987765 103.554624,32.4057176 100.589094,32.4057176 C97.0816824,32.4057176 96.2490941,30.0010118 96.2490941,30.0010118 L96.2490941,28.7887765 L98.4372118,28.7887765 C98.4372118,28.7887765 98.8176824,30.0010118 100.516624,30.0010118 C102.090388,30.0010118 102.813447,28.9156 102.813447,27.3607765 L102.813447,26.3840706 C102.198271,27.2883059 101.149918,27.7947765 99.8116824,27.7947765 C97.2974471,27.7947765 95.7434471,25.6791294 95.7434471,23.1113647 C95.7434471,20.4348941 97.3345059,18.2830118 99.8841529,18.2830118 Z M111.637318,18.3014588 C114.729671,18.3014588 116.067906,20.1642824 116.067906,22.6052235 C116.067906,23.2376941 115.941082,23.7622824 115.941082,23.7622824 L109.576024,23.7622824 C109.739082,24.9918118 110.462141,25.7873412 111.800376,25.7873412 C113.427671,25.7873412 113.753788,24.9564 113.753788,24.9564 L115.886729,24.9564 L115.886729,26.1669882 C115.886729,26.1669882 115.001435,27.9754588 111.746024,27.9754588 C108.4552,27.9754588 106.827082,25.8779294 106.827082,23.1660471 C106.827082,20.4895765 108.563082,18.3014588 111.637318,18.3014588 Z M79.2522706,18.3007176 C82.0374471,18.3007176 83.4292118,19.6208353 83.4292118,22.1704824 L83.4292118,27.7037765 L80.9701529,27.7037765 L80.7898,26.5467176 C80.3376824,27.2878941 79.5240353,27.9755412 78.0770941,27.9755412 C76.0701529,27.9755412 75.0753294,26.6916588 75.0753294,25.1360118 C75.0753294,23.4000118 76.3410941,22.2973059 78.9994471,22.2973059 C79.9390941,22.2973059 80.6992118,22.4784824 80.6992118,22.4784824 L80.6992118,22.0798941 C80.6992118,21.0850706 80.2289765,20.5613059 79.1987412,20.5613059 C78.0227412,20.5613059 77.6430941,21.3930706 77.6430941,21.3930706 L75.5818,21.3930706 L75.5818,20.1816588 C75.5818,20.1816588 76.3592118,18.3007176 79.2522706,18.3007176 Z M94.4238235,14.1426353 L94.4238235,27.7036941 L91.8922941,27.7036941 L91.7292353,26.4016941 C91.1321765,27.3602824 90.0475882,27.9754588 88.7101765,27.9754588 C86.1415882,27.9754588 84.6411176,25.8054588 84.6411176,23.1471059 C84.6411176,20.4171059 86.2502941,18.3006353 88.7637059,18.3006353 C90.0838235,18.3006353 91.0605294,18.8614588 91.7111176,19.8019294 L91.7111176,14.1426353 L94.4238235,14.1426353 Z M120.841082,16.2582824 L120.841082,18.5724 L122.5812,18.5724 L122.5812,20.7967529 L120.841082,20.7967529 L120.841082,24.3766353 C120.841082,25.2989882 121.149082,25.7148706 121.854024,25.7148706 C122.283906,25.7148706 122.4972,25.6506353 122.574612,25.6325176 C122.574612,25.7173412 122.5812,27.6468706 122.5812,27.7036941 C122.5812,27.7605176 121.936376,27.9746353 121.410141,27.9746353 C119.439435,27.9746353 118.111082,26.6553412 118.111082,24.4672235 L118.111082,20.7967529 L116.754729,20.7967529 L116.754729,18.5724 L118.146494,18.5724 L118.291435,16.2582824 L120.841082,16.2582824 Z M13.1819882,18.8728235 L18.0679882,23.7588235 L22.9539882,18.8728235 L24.7789294,18.8728235 L24.7789294,20.6977647 L18.0679882,27.4087059 L11.3570471,20.6977647 L11.3570471,18.8728235 L13.1819882,18.8728235 Z M36.1353176,18.2364824 L42.8462588,24.9474235 L42.8462588,26.7723647 L41.0204941,26.7723647 L36.1353176,21.8863647 L31.2493176,26.7723647 L29.4243765,26.7723647 L29.4243765,24.9474235 L36.1353176,18.2364824 Z M79.1806235,23.8521294 C78.1133294,23.8521294 77.7699176,24.3042471 77.7699176,24.8831882 C77.7699176,25.5881294 78.2220353,25.8771882 78.9632118,25.8771882 C80.1383882,25.8771882 80.6992118,25.0454235 80.6992118,24.3948353 L80.6992118,23.9970706 C80.6992118,23.9970706 80.0659176,23.8521294 79.1806235,23.8521294 Z M89.5411176,20.7596941 C88.1304118,20.7596941 87.3711176,21.8088706 87.3711176,23.1471059 C87.3711176,24.4672235 88.1304118,25.5155765 89.5411176,25.5155765 C90.8431176,25.5155765 91.7111176,24.4853412 91.7111176,23.1289882 C91.7111176,21.7907529 90.8431176,20.7596941 89.5411176,20.7596941 Z M68.9818706,20.7420706 C67.5892824,20.7420706 66.8118706,21.7731294 66.8118706,23.0751294 C66.8118706,24.3952471 67.5892824,25.4444235 68.9999882,25.4444235 C70.2838706,25.4444235 71.1518706,24.4133647 71.1518706,23.0751294 C71.1518706,21.7550118 70.2838706,20.7420706 68.9818706,20.7420706 Z M100.643447,20.7420706 C99.2508588,20.7420706 98.4734471,21.7731294 98.4734471,23.0751294 C98.4734471,24.3952471 99.2508588,25.4444235 100.661565,25.4444235 C101.945447,25.4444235 102.813447,24.4133647 102.813447,23.0751294 C102.813447,21.7550118 101.945447,20.7420706 100.643447,20.7420706 Z M111.6192,20.4714588 C110.425906,20.4714588 109.846965,21.1582824 109.629553,22.1168706 L113.445788,22.1168706 C113.445788,21.2488706 112.848729,20.4714588 111.6192,20.4714588 Z" id="Combined-Shape" fill="#0D0D0D"></path>
                    </g>
                </g>
            </g>
        </g>
    </g>
</svg>