<svg xmlns="http://www.w3.org/2000/svg" width="64" height="64" viewBox="0 0 64 64">
    <g fill="none" fill-rule="evenodd">
        <path fill="#E7FDF0" d="M25.639 0H38.36c8.915 0 12.148.928 15.407 2.671 3.26 1.743 5.818 4.301 7.56 7.56C63.073 13.492 64 16.725 64 25.64V38.36c0 8.915-.928 12.148-2.671 15.407-1.743 3.26-4.301 5.818-7.56 7.56C50.508 63.073 47.275 64 38.36 64H25.64c-8.915 0-12.148-.928-15.407-2.671-3.26-1.743-5.818-4.301-7.56-7.56C.927 50.508 0 47.275 0 38.36V25.64c0-8.915.928-12.148 2.671-15.407 1.743-3.26 4.301-5.818 7.56-7.56C13.492.927 16.725 0 25.64 0z"/>
        <g>
            <path d="M0 0L26 0 26 26 0 26z" transform="translate(19 19)"/>
            <path fill="#24E545" fill-rule="nonzero" d="M9.802 11.569h2.478c2.838 0 5.138 2.212 5.138 4.941H9.424l.001 1.098h9.135V16.51c-.004-1.168-.355-2.311-1.012-3.294h3.296c2.202 0 4.21 1.218 5.156 3.13C23.3 19.773 18.928 22 13.993 22 10.84 22 8.169 21.352 6 20.216V10c1.39.191 2.7.733 3.802 1.569zM3.75 9c.634 0 1.167.449 1.241 1.044l.009.138v10.636C5 21.471 4.44 22 3.75 22h-2.5C.56 22 0 21.47 0 20.818V10.182C0 9.529.56 9 1.25 9h2.5zm10.868-7.184l.382.391.383-.39c.68-.701 1.677-.977 2.612-.722.935.254 1.665 1 1.914 1.953.249.954-.021 1.972-.709 2.667L15 10 10.8 5.712c-.687-.695-.957-1.712-.708-2.666.25-.954.98-1.7 1.914-1.953.935-.254 1.932.022 2.613.723z" transform="translate(19 19)"/>
        </g>
    </g>
</svg>
